<svg width="14" height="11" viewBox="0 0 14 11" fill="none" xmlns="http://www.w3.org/2000/svg">
<path d="M7.96967 8.96967C7.67678 9.26256 7.67678 9.73743 7.96967 10.0303C8.26256 10.3232 8.73744 10.3232 9.03033 10.0303L13.0303 6.03033C13.1768 5.88388 13.25 5.69194 13.25 5.5C13.25 5.3983 13.2298 5.30134 13.1931 5.21291C13.1565 5.12445 13.1022 5.04157 13.0303 4.96967L9.03033 0.969666C8.73744 0.676773 8.26256 0.676773 7.96967 0.969666C7.67678 1.26256 7.67678 1.73743 7.96967 2.03033L10.6893 4.75L1 4.75C0.585787 4.75 0.25 5.08578 0.25 5.5C0.25 5.91421 0.585787 6.25 1 6.25L10.6893 6.25L7.96967 8.96967Z" fill="#4A4A4A"/>
</svg>
