<svg width="14" height="11" viewBox="0 0 14 11" fill="none" xmlns="http://www.w3.org/2000/svg">
<path d="M5.53033 2.03033C5.82322 1.73744 5.82322 1.26256 5.53033 0.96967C5.23744 0.676777 4.76256 0.676777 4.46967 0.96967L0.46967 4.96967C0.323223 5.11612 0.25 5.30806 0.25 5.5C0.25 5.60169 0.270239 5.69866 0.306909 5.78709C0.343509 5.87555 0.397763 5.95842 0.46967 6.03033L4.46967 10.0303C4.76256 10.3232 5.23744 10.3232 5.53033 10.0303C5.82322 9.73744 5.82322 9.26256 5.53033 8.96967L2.81066 6.25H12.5C12.9142 6.25 13.25 5.91421 13.25 5.5C13.25 5.08579 12.9142 4.75 12.5 4.75H2.81066L5.53033 2.03033Z" fill="#B5B5B5"/>
</svg>
